# xmcd
#
# Track frame offsets:
#	150
#	16964
#	36309
#	56182
#	70629
#	88897
#	107096
#	126710
#	146185
#	164627
#	181747
#	198013
#
# Disc length: 2938 seconds
#
# Revision: 0
# Processed by: cddbd v1.5.2PL0 Copyright (c) Steve Scherf et al.
# Submitted via: EZCDAudioConverter 7.1.5.1
#
DISCID=b20b780c
DTITLE=黄阅 - 凡间＋魔戒＋折子戏
DYEAR=2004
DGENRE=
TTITLE0=奥运中国
TTITLE1=凡间
TTITLE2=你不懂
TTITLE3=魔戒
TTITLE4=女人
TTITLE5=脆弱
TTITLE6=爱是谁的错
TTITLE7=简单爱情
TTITLE8=哭到天亮
TTITLE9=思念你就会忘记自己
TTITLE10=凡间(激情版)
TTITLE11=折子戏
EXTD=
EXTT0=
EXTT1=
EXTT2=
EXTT3=
EXTT4=
EXTT5=
EXTT6=
EXTT7=
EXTT8=
EXTT9=
EXTT10=
EXTT11=
PLAYORDER=
